<svg xmlns="http://www.w3.org/2000/svg" xmlns:xlink="http://www.w3.org/1999/xlink" width="500" zoomAndPan="magnify" viewBox="0 0 375 374.999991" height="500" preserveAspectRatio="xMidYMid meet" version="1.0"><defs><filter x="0%" y="0%" width="100%" height="100%" id="a088d7952e"><feColorMatrix values="0 0 0 0 1 0 0 0 0 1 0 0 0 0 1 0 0 0 1 0" color-interpolation-filters="sRGB"/></filter><g/><clipPath id="a4ac06c6f9"><path d="M 43.167969 144.722656 L 76.167969 144.722656 L 76.167969 187.472656 L 43.167969 187.472656 Z M 43.167969 144.722656 " clip-rule="nonzero"/></clipPath><clipPath id="b84513eb3d"><path d="M 56.976562 144.722656 L 85.476562 144.722656 L 85.476562 187.472656 L 56.976562 187.472656 Z M 56.976562 144.722656 " clip-rule="nonzero"/></clipPath><mask id="5be755b275"><g filter="url(#a088d7952e)"><rect x="-37.5" width="450" fill="#000000" y="-37.499999" height="449.999989" fill-opacity="0.8"/></g></mask><clipPath id="81c62792b1"><path d="M 0.238281 0.722656 L 28.738281 0.722656 L 28.738281 43.472656 L 0.238281 43.472656 Z M 0.238281 0.722656 " clip-rule="nonzero"/></clipPath><clipPath id="387b81ee37"><rect x="0" width="29" y="0" height="44"/></clipPath></defs><g clip-path="url(#a4ac06c6f9)"><path fill="#38b6ff" d="M 61.769531 144.722656 L 43.167969 144.722656 L 57.570312 187.46875 L 76.167969 187.46875 L 61.769531 144.722656 " fill-opacity="1" fill-rule="nonzero"/></g><g clip-path="url(#b84513eb3d)"><path fill="#a6a6a6" d="M 71.226562 144.722656 L 56.976562 144.722656 L 71.226562 187.46875 L 85.476562 187.46875 L 71.226562 144.722656 " fill-opacity="1" fill-rule="nonzero"/></g><g fill="#ffffff" fill-opacity="1"><g transform="translate(111.057844, 187.402106)"><g><path d="M 30.546875 -10.53125 L 12.640625 -10.53125 L 8.828125 0.53125 L 8.421875 1.640625 L 0.59375 1.640625 L 1.375 -0.53125 L 18.046875 -46.625 L 18.4375 -47.734375 L 24.75 -47.734375 L 25.15625 -46.6875 L 42.40625 -0.59375 L 43.265625 1.640625 L 34.890625 1.640625 L 34.5 0.53125 Z M 14.875 -17.125 L 28.25 -17.125 L 21.40625 -36.078125 Z M 14.875 -17.125 "/></g></g></g><g fill="#ffffff" fill-opacity="1"><g transform="translate(155.299567, 187.402106)"><g><path d="M 5.265625 -47.734375 L 17.125 -47.734375 C 21.988281 -47.734375 26.085938 -46.664062 29.421875 -44.53125 C 32.765625 -42.40625 35.179688 -39.257812 36.671875 -35.09375 C 37.816406 -32.113281 38.390625 -28.226562 38.390625 -23.4375 C 38.390625 -21.070312 38.253906 -18.878906 37.984375 -16.859375 C 37.722656 -14.835938 37.332031 -12.992188 36.8125 -11.328125 C 36.539062 -10.492188 36.238281 -9.703125 35.90625 -8.953125 C 35.582031 -8.203125 35.222656 -7.488281 34.828125 -6.8125 C 34.429688 -6.132812 34.003906 -5.5 33.546875 -4.90625 C 33.085938 -4.3125 32.59375 -3.773438 32.0625 -3.296875 C 30 -1.316406 27.519531 0 24.625 0.65625 C 21.90625 1.3125 18.851562 1.640625 15.46875 1.640625 L 3.625 1.640625 L 3.625 -47.734375 Z M 11.390625 -40.828125 L 11.390625 -5.265625 L 15.140625 -5.265625 C 17.335938 -5.265625 19.445312 -5.460938 21.46875 -5.859375 C 27.570312 -6.910156 30.625 -12.878906 30.625 -23.765625 C 30.625 -29.953125 29.238281 -34.453125 26.46875 -37.265625 C 24.144531 -39.640625 20.921875 -40.828125 16.796875 -40.828125 Z M 11.390625 -40.828125 "/></g></g></g><g fill="#ffffff" fill-opacity="1"><g transform="translate(196.315327, 187.402106)"><g><path d="M 30.546875 -10.53125 L 12.640625 -10.53125 L 8.828125 0.53125 L 8.421875 1.640625 L 0.59375 1.640625 L 1.375 -0.53125 L 18.046875 -46.625 L 18.4375 -47.734375 L 24.75 -47.734375 L 25.15625 -46.6875 L 42.40625 -0.59375 L 43.265625 1.640625 L 34.890625 1.640625 L 34.5 0.53125 Z M 14.875 -17.125 L 28.25 -17.125 L 21.40625 -36.078125 Z M 14.875 -17.125 "/></g></g></g><g fill="#ffffff" fill-opacity="1"><g transform="translate(240.55705, 187.402106)"><g><path d="M 3.625 0 L 3.625 -47.734375 L 14.8125 -47.734375 C 20.5625 -47.734375 24.773438 -46.769531 27.453125 -44.84375 C 30.742188 -42.5625 32.390625 -38.742188 32.390625 -33.390625 C 32.390625 -30.578125 32.003906 -28.070312 31.234375 -25.875 C 30.472656 -23.675781 29.3125 -21.84375 27.75 -20.375 C 26.195312 -18.90625 24.273438 -17.84375 21.984375 -17.1875 C 20.929688 -16.875 19.800781 -16.640625 18.59375 -16.484375 C 17.394531 -16.335938 16.132812 -16.265625 14.8125 -16.265625 L 11.390625 -16.265625 L 11.390625 1.640625 L 3.625 1.640625 Z M 11.390625 -40.828125 L 11.390625 -23.171875 L 14.484375 -23.171875 C 18.035156 -23.171875 20.625 -23.894531 22.25 -25.34375 C 23.832031 -26.75 24.625 -29.1875 24.625 -32.65625 C 24.625 -33.84375 24.523438 -34.882812 24.328125 -35.78125 C 24.128906 -36.6875 23.875 -37.390625 23.5625 -37.890625 C 23.257812 -38.398438 22.890625 -38.804688 22.453125 -39.109375 C 21.617188 -39.640625 20.539062 -40.054688 19.21875 -40.359375 C 17.90625 -40.671875 16.328125 -40.828125 14.484375 -40.828125 Z M 11.390625 -40.828125 "/></g></g></g><g fill="#ffffff" fill-opacity="1"><g transform="translate(275.581747, 187.402106)"><g><path d="M 14.359375 0 L 14.359375 -40.5 L 1.1875 -40.5 L 1.3125 -42.265625 L 1.640625 -46.21875 L 1.78125 -47.734375 L 34.890625 -47.734375 L 34.765625 -45.953125 L 34.4375 -42.015625 L 34.296875 -40.5 L 21.796875 -40.5 L 21.796875 1.640625 L 14.359375 1.640625 Z M 14.359375 0 "/></g></g></g><g mask="url(#5be755b275)"><g transform="matrix(1, 0, 0, 1, 71, 144)"><g clip-path="url(#387b81ee37)"><g clip-path="url(#81c62792b1)"><path fill="#38fff3" d="M 14.488281 0.722656 L 0.238281 0.722656 L 14.488281 43.46875 L 28.738281 43.46875 L 14.488281 0.722656 " fill-opacity="1" fill-rule="nonzero"/></g></g></g></g></svg>