<svg xmlns="http://www.w3.org/2000/svg" version="1.1" viewBox="-5.0 -10.0 110.0 135.0">
 <path d="m33.434 1c1.2695 0 2.2969 1.0273 2.2969 2.2969s-1.0273 2.2969-2.2969 2.2969h-20.477c-2.0234 0-3.8633 0.83203-5.1992 2.168-1.3359 1.3359-2.168 3.1758-2.168 5.1992v20.477c0 1.2695-1.0273 2.2969-2.2969 2.2969s-2.2969-1.0273-2.2969-2.2969v-20.477c0-3.293 1.3438-6.2812 3.5117-8.4492 2.168-2.168 5.1562-3.5117 8.4492-3.5117zm42.992 76.832-26.43-9.5-26.301 9.4531c-0.58203 0.25-1.2617 0.25391-1.8789-0.03125-1.1445-0.53906-1.6367-1.9062-1.0938-3.0508l27.203-57.172c0.21875-0.46484 0.59375-0.85938 1.0938-1.0938 1.1445-0.53906 2.5117-0.050781 3.0508 1.0938l27.203 57.172-0.003907 0.003906c0.25 0.52734 0.29688 1.1562 0.085938 1.75-0.42578 1.1875-1.7344 1.8047-2.9258 1.3789zm-75.43-11.27c0-1.2695 1.0273-2.2969 2.2969-2.2969s2.2969 1.0273 2.2969 2.2969v20.477c0 2.0234 0.83203 3.8633 2.168 5.1992 1.3359 1.3359 3.1758 2.168 5.1992 2.168h20.477c1.2695 0 2.2969 1.0273 2.2969 2.2969s-1.0273 2.2969-2.2969 2.2969h-20.477c-3.293 0-6.2812-1.3438-8.4492-3.5117-2.168-2.168-3.5117-5.1562-3.5117-8.4492zm65.566 32.438c-1.2695 0-2.2969-1.0273-2.2969-2.2969s1.0273-2.2969 2.2969-2.2969h20.477c2.0234 0 3.8633-0.83203 5.1992-2.168 1.3359-1.3359 2.168-3.1758 2.168-5.1992v-20.477c0-1.2695 1.0273-2.2969 2.2969-2.2969s2.2969 1.0273 2.2969 2.2969v20.477c0 3.293-1.3438 6.2812-3.5117 8.4492s-5.1562 3.5117-8.4492 3.5117zm32.438-65.566c0 1.2695-1.0273 2.2969-2.2969 2.2969s-2.2969-1.0273-2.2969-2.2969v-20.477c0-2.0234-0.83203-3.8633-2.168-5.1992-1.3359-1.3359-3.1758-2.168-5.1992-2.168h-20.477c-1.2695 0-2.2969-1.0273-2.2969-2.2969s1.0273-2.2969 2.2969-2.2969h20.477c3.293 0 6.2812 1.3438 8.4492 3.5117 2.168 2.168 3.5117 5.1562 3.5117 8.4492z"/>
<text x="0.0" y="117.5" font-size="5.0" font-weight="bold" font-family="Arbeit Regular, Helvetica, Arial-Unicode, Arial, Sans-serif" fill="#000000">Created by SUBAIDA</text><text x="0.0" y="122.5" font-size="5.0" font-weight="bold" font-family="Arbeit Regular, Helvetica, Arial-Unicode, Arial, Sans-serif" fill="#000000">from Noun Project</text></svg>